<?xml version="1.0" encoding="UTF-8" standalone="no"?>
<!DOCTYPE svg PUBLIC "-//W3C//DTD SVG 1.1//EN"
 "http://www.w3.org/Graphics/SVG/1.1/DTD/svg11.dtd">
<!-- Generated by graphviz version 2.44.1 (20200629.0846)
 -->
<!-- Pages: 1 -->
<svg width="334pt" height="305pt"
 viewBox="0.00 0.00 334.15 304.86" xmlns="http://www.w3.org/2000/svg" xmlns:xlink="http://www.w3.org/1999/xlink">
<g id="graph0" class="graph" transform="scale(1 1) rotate(0) translate(4 300.86)">
<polygon fill="white" stroke="transparent" points="-4,4 -4,-300.86 330.15,-300.86 330.15,4 -4,4"/>
<!-- goat -->
<g id="node1" class="node">
<title>goat</title>
<ellipse fill="none" stroke="black" cx="165.07" cy="-148.43" rx="55.72" ry="37.45"/>
<text text-anchor="middle" x="165.07" y="-159.73" font-family="Times,serif" font-size="14.00">goat</text>
<text text-anchor="middle" x="165.07" y="-144.73" font-family="Times,serif" font-size="14.00">~</text>
<text text-anchor="middle" x="165.07" y="-129.73" font-family="Times,serif" font-size="14.00">Categorical</text>
</g>
<!-- switch -->
<g id="node3" class="node">
<title>switch</title>
<ellipse fill="none" stroke="black" cx="207.07" cy="-37.48" rx="55.72" ry="37.45"/>
<text text-anchor="middle" x="207.07" y="-48.78" font-family="Times,serif" font-size="14.00">switch</text>
<text text-anchor="middle" x="207.07" y="-33.78" font-family="Times,serif" font-size="14.00">~</text>
<text text-anchor="middle" x="207.07" y="-18.78" font-family="Times,serif" font-size="14.00">Categorical</text>
</g>
<!-- goat&#45;&gt;switch -->
<g id="edge3" class="edge">
<title>goat&#45;&gt;switch</title>
<path fill="none" stroke="black" d="M178.71,-112.06C182.23,-102.92 186.07,-92.97 189.75,-83.42"/>
<polygon fill="black" stroke="black" points="193.03,-84.64 193.36,-74.05 186.5,-82.12 193.03,-84.64"/>
</g>
<!-- car -->
<g id="node2" class="node">
<title>car</title>
<ellipse fill="none" stroke="black" cx="77.07" cy="-259.38" rx="77.15" ry="37.45"/>
<text text-anchor="middle" x="77.07" y="-270.68" font-family="Times,serif" font-size="14.00">car</text>
<text text-anchor="middle" x="77.07" y="-255.68" font-family="Times,serif" font-size="14.00">~</text>
<text text-anchor="middle" x="77.07" y="-240.68" font-family="Times,serif" font-size="14.00">DiscreteUniform</text>
</g>
<!-- car&#45;&gt;goat -->
<g id="edge1" class="edge">
<title>car&#45;&gt;goat</title>
<path fill="none" stroke="black" d="M104.68,-224.21C113.52,-213.26 123.39,-201.04 132.55,-189.7"/>
<polygon fill="black" stroke="black" points="135.51,-191.6 139.07,-181.63 130.06,-187.21 135.51,-191.6"/>
</g>
<!-- selected -->
<g id="node4" class="node">
<title>selected</title>
<ellipse fill="none" stroke="black" cx="249.07" cy="-259.38" rx="77.15" ry="37.45"/>
<text text-anchor="middle" x="249.07" y="-270.68" font-family="Times,serif" font-size="14.00">selected</text>
<text text-anchor="middle" x="249.07" y="-255.68" font-family="Times,serif" font-size="14.00">~</text>
<text text-anchor="middle" x="249.07" y="-240.68" font-family="Times,serif" font-size="14.00">DiscreteUniform</text>
</g>
<!-- selected&#45;&gt;goat -->
<g id="edge2" class="edge">
<title>selected&#45;&gt;goat</title>
<path fill="none" stroke="black" d="M222.5,-223.91C214.22,-213.17 205.01,-201.23 196.44,-190.12"/>
<polygon fill="black" stroke="black" points="199.21,-187.98 190.33,-182.19 193.67,-192.25 199.21,-187.98"/>
</g>
<!-- selected&#45;&gt;switch -->
<g id="edge4" class="edge">
<title>selected&#45;&gt;switch</title>
<path fill="none" stroke="black" d="M246.19,-221.72C243.39,-191.69 238.33,-148.25 230.07,-110.95 228.13,-102.15 225.58,-92.89 222.9,-84.03"/>
<polygon fill="black" stroke="black" points="226.16,-82.75 219.83,-74.26 219.48,-84.85 226.16,-82.75"/>
</g>
</g>
</svg>
